<?xml version="1.0" encoding="utf-8"?>
<!-- Generator: Adobe Illustrator 16.0.0, SVG Export Plug-In . SVG Version: 6.00 Build 0)  -->
<!DOCTYPE svg PUBLIC "-//W3C//DTD SVG 1.1//EN" "http://www.w3.org/Graphics/SVG/1.1/DTD/svg11.dtd">
<svg version="1.1" id="Layer_1" xmlns="http://www.w3.org/2000/svg" xmlns:xlink="http://www.w3.org/1999/xlink" x="0px" y="0px"
	 width="595.556px" height="595.28px" viewBox="0 0 595.556 595.28" enable-background="new 0 0 595.556 595.28"
	 xml:space="preserve">
<path fill="#FFFFFF" d="M365.929,509.432c-1.52-0.731-2.354-1.841-2.856-3.228c-0.554-1.531-0.974-3.116-1.512-4.651
	c-0.829-2.36-2.459-3.571-4.94-3.691c-4.271-0.206-6.784,1.294-8.625,5.276c-1.216,2.628-1.606,5.435-1.7,8.298
	c-0.243,7.552,3.388,13.429,10.228,15.821c7.401,2.596,14.595,1.798,21.252-2.566c3.797-2.489,6.137-6.094,6.885-10.685
	c0.264-1.611,0.39-3.265,0.407-4.901c0.09-7.473-1.809-14.505-4.775-21.259c-4.102-9.33-9.662-17.551-17.611-23.908
	c-7.181-5.743-15.104-6.317-23.342-3.172c-7.638,2.914-12.322,8.994-15.513,16.457c-2.159,5.042-3.006,10.396-3.455,15.816
	c-1.142,13.887-1.224,27.748,1.427,41.503c1.727,8.951,4.492,17.503,9.379,25.21c5.026,7.934,11.757,13.616,20.614,16.558
	c7.453,2.475,15.109,1.777,22.732,1.718c0.16-0.003,0.326-0.075,0.486-0.123c5.252-1.491,10.586-2.725,15.73-4.531
	c8.727-3.065,16.809-7.45,23.708-13.869c6.144-5.716,10.675-12.539,12.049-21.021c0.948-5.846,1.519-11.836,1.488-17.758
	c-0.071-13.069-1.864-25.975-4.925-38.666c-3.746-15.553-8.779-30.612-16.775-44.457c-4.929-8.529-10.061-16.939-15.166-25.356
	c-5.868-9.679-11.484-19.484-15.258-30.272c-4.324-12.375-6.036-25.146-4.517-38.184c0.937-8.024,2.654-15.96,4.222-23.894
	c1.673-8.453,3.467-16.879,4.117-25.496c1.22-16.215,1.026-32.432-0.516-48.614c-1.651-17.356-4.703-34.473-8.771-51.404
	c-5.229-21.79-12.041-43.082-19.048-64.319c-0.486-1.469-1.366-2.01-2.602-2.438c-6.596-2.292-13.185-4.601-19.771-6.92
	c-1.011-0.354-1.997-0.787-3.082-1.221c0.255-0.683,0.405-1.17,0.612-1.633c5.142-11.398,8.905-23.257,11.184-35.594
	c1.794-9.716,2.591-19.5,1.199-29.354c-1.382-9.781-6.057-17.242-14.783-21.782c-4.382-2.28-9.035-3.774-13.851-4.593
	c-5.376-0.915-10.806-1.493-16.204-2.288c-7.437-1.096-14.915-0.776-22.386-0.757c-0.232,0-0.465,0.15-0.807,0.269
	c-0.046,0.664-0.07,1.344-0.142,2.015c-0.385,3.511-0.47,7.096-1.244,10.515c-1.422,6.288-3.114,12.519-4.939,18.699
	c-2.586,8.749-5.34,17.448-6.22,26.607c-0.127,1.31-0.914,1.695-1.828,2.167c-6.1,3.151-12.478,5.538-19.054,7.398
	c-0.757,0.215-1.493,0.504-2.517,0.854c1.607,2.522,2.892,4.858,4.479,6.954c2.578,3.402,5.317,6.68,8.057,9.951
	c4.223,5.041,8.447,10.068,11.479,16.015c3.637,7.134,4.712,14.657,3.464,22.583c-0.976,6.205-3.099,12.002-5.976,17.493
	c-3.262,6.229-6.694,12.361-10.111,18.5c-4.884,8.775-9.394,17.72-12.57,27.323c-1.564,4.737-3.124,9.476-4.818,14.162
	c-1.817,5.023-3.917,9.927-7.221,14.154c-2.937,3.755-6.534,6.371-11.54,6.879c-0.346-1.217-0.693-2.352-0.989-3.501
	c-3.848-14.914-1.203-28.38,8.587-40.205c2.176-2.626,4.465-5.164,6.845-7.596c4.824-4.93,9.807-9.696,14.608-14.648
	c4.534-4.67,8.429-9.856,11.106-15.906c0.822-1.856,1.465-3.799,2.188-5.704c-0.52-0.267-0.73-0.413-0.963-0.479
	c-0.482-0.137-0.977-0.259-1.474-0.338c-9.007-1.438-17.094-5.08-24.017-11.141c-4.019-3.519-7.786-7.363-11.458-11.268
	c-3.671-3.907-6.985-8.174-10.66-12.08c-1.903-2.02-4.075-3.914-6.437-5.31c-4.286-2.537-9.813-1.583-13.203,1.837
	c1.089,1.663,1.761,2.31,3.3,2.994c0.768,0.343,1.563,0.652,2.374,0.85c3.393,0.831,6.117,2.793,8.503,5.297
	c1.292,1.354,2.578,2.731,3.719,4.217c4.542,5.917,7.843,12.631,11.586,19.091c-0.393,0.766-0.734,1.456-1.099,2.13
	c-12.856,23.847-19.949,49.463-21.862,76.578c-0.999,14.154-0.203,28.284,1.949,42.311c0.786,5.116,2.004,10.127,4.046,14.902
	c1.822,4.258,4.577,7.603,8.641,9.748c1.718,0.907,3.403,1.88,5.137,2.751c4.393,2.212,8.009,5.38,10.88,9.412
	c1.683,2.365,3.326,4.779,4.754,7.31c4.504,7.962,7.263,16.659,9.872,25.409c2.997,10.052,5.671,20.218,9.895,29.845
	c0.117,0.269,0.054,0.62,0.073,0.925c-2.885,0.205-5.646,0.348-8.4,0.6c-3.612,0.331-7.121,1.162-10.471,2.622
	c-9.758,4.267-14.766,15.898-11.061,25.872c0.668,0.164,1.393,0.373,2.127,0.519c13.576,2.678,27.258,3.817,41.093,3.305
	c14.843-0.545,29.404-2.778,43.688-6.924c16.699-4.845,32.39-11.89,46.4-22.576c0.298-0.222,0.66-0.352,1.122-0.59
	c0.179,0.708,0.31,1.196,0.422,1.688c0.811,3.519,1.443,7.087,2.459,10.542c3.104,10.556,8.687,19.764,15.05,28.524
	c7.838,10.786,15.612,21.626,23.515,32.356c6.146,8.354,10.911,17.405,13.585,27.529c1.708,6.481,3.463,12.968,4.743,19.548
	c2.008,10.279,2.648,20.669,1.299,31.138c-1.18,9.171-5.223,16.436-12.714,21.654c-9.747,6.789-20.517,10.152-32.252,10.144
	c-4.727-0.005-9.343-0.898-13.759-2.783c-5.812-2.483-10.045-6.507-12.081-12.729c-0.719-2.205-1.472-4.414-1.96-6.679
	c-2.919-13.528-3.23-27.194-1.776-40.921c0.482-4.55,1.371-9.057,3.438-13.186c2.185-4.365,5.174-6.344,11.17-4.299
	c1.547,0.521,2.984,1.587,4.272,2.653c1.229,1.017,2.303,2.28,3.264,3.58c3.81,5.118,5.899,11.002,6.855,17.306
	C366.426,504.577,366.688,506.91,365.929,509.432z M232.43,86.882c0.387-0.035,0.799-0.049,1.203-0.109
	c3.616-0.539,6.935-1.978,10.194-3.586c3.407-1.678,6.833-3.298,10.613-3.898c1.956-0.31,1.917-0.322,2.228-2.39
	c0.407-2.722,0.749-5.465,1.353-8.143c1.954-8.632,4.022-17.238,6.031-25.857c0.322-1.388,0.562-2.797,0.854-4.257
	C239.621,39.689,225.018,62.167,232.43,86.882z M198.5,172.954c2.471-1.818,4.08-4.129,5.341-6.673
	c1.983-3.992,3.822-8.059,5.769-12.07c0.38-0.782,0.387-1.421-0.015-2.174c-3.688-6.917-7.763-13.539-13.601-18.807
	c-2.674-2.412-5.619-4.398-9.082-5.399c-2.825-0.82-5.686-1.357-8.578-0.293c0.197,2.625,1.627,4.329,3.327,5.773
	c1.874,1.593,3.852,3.062,5.836,4.508c3.523,2.562,6.594,5.633,9.349,9.006c1.274,1.558,2.296,3.403,3.113,5.266
	c0.857,1.954,1.136,4.09,0.273,6.697c-1.088-1.395-1.996-2.47-2.806-3.617c-2.122-3.001-4.046-6.167-6.35-9.01
	c-1.75-2.161-3.768-4.218-6.013-5.799c-3.273-2.306-7.661-1.443-10.286,1.591c-0.232,0.269-0.218,0.762-0.371,1.341
	c3.721,1.161,6.863,3.144,9.213,6.176c1.665,2.149,3.154,4.469,4.51,6.84c1.825,3.194,3.391,6.544,5.17,9.769
	C194.665,168.554,196.228,170.904,198.5,172.954z"/>
<path fill-rule="evenodd" clip-rule="evenodd" d="M365.929,509.432c0.76-2.521,0.497-4.854,0.158-7.089
	c-0.956-6.304-3.046-12.188-6.855-17.306c-0.961-1.3-2.035-2.563-3.264-3.58c-1.288-1.066-2.726-2.132-4.272-2.653
	c-5.996-2.045-8.985-0.066-11.17,4.299c-2.066,4.129-2.955,8.636-3.438,13.186c-1.454,13.727-1.143,27.393,1.776,40.921
	c0.488,2.265,1.241,4.474,1.96,6.679c2.036,6.223,6.269,10.246,12.081,12.729c4.416,1.885,9.032,2.778,13.759,2.783
	c11.735,0.009,22.505-3.354,32.252-10.144c7.491-5.219,11.534-12.483,12.714-21.654c1.35-10.469,0.709-20.858-1.299-31.138
	c-1.28-6.58-3.035-13.066-4.743-19.548c-2.674-10.124-7.439-19.175-13.585-27.529c-7.902-10.73-15.677-21.57-23.515-32.356
	c-6.363-8.761-11.945-17.969-15.05-28.524c-1.016-3.455-1.648-7.023-2.459-10.542c-0.112-0.492-0.243-0.98-0.422-1.688
	c-0.462,0.238-0.824,0.368-1.122,0.59c-14.011,10.687-29.701,17.731-46.4,22.576c-14.284,4.146-28.845,6.379-43.688,6.924
	c-13.835,0.513-27.517-0.627-41.093-3.305c-0.735-0.146-1.459-0.354-2.127-0.519c-3.705-9.974,1.303-21.605,11.061-25.872
	c3.35-1.46,6.859-2.291,10.471-2.622c2.753-0.252,5.515-0.395,8.4-0.6c-0.02-0.305,0.043-0.656-0.073-0.925
	c-4.224-9.627-6.898-19.793-9.895-29.845c-2.608-8.75-5.368-17.447-9.872-25.409c-1.428-2.53-3.071-4.944-4.754-7.31
	c-2.871-4.032-6.487-7.2-10.88-9.412c-1.734-0.871-3.419-1.844-5.137-2.751c-4.064-2.146-6.819-5.49-8.641-9.748
	c-2.042-4.775-3.261-9.786-4.046-14.902c-2.152-14.027-2.948-28.157-1.949-42.311c1.913-27.114,9.006-52.731,21.862-76.578
	c0.364-0.675,0.706-1.364,1.099-2.13c-3.743-6.46-7.043-13.174-11.586-19.091c-1.142-1.486-2.428-2.863-3.719-4.217
	c-2.386-2.504-5.11-4.467-8.503-5.297c-0.811-0.198-1.606-0.507-2.374-0.85c-1.539-0.685-2.21-1.331-3.3-2.994
	c3.39-3.42,8.917-4.374,13.203-1.837c2.362,1.396,4.534,3.29,6.437,5.31c3.675,3.906,6.988,8.173,10.66,12.08
	c3.672,3.905,7.44,7.749,11.458,11.268c6.923,6.061,15.01,9.704,24.017,11.141c0.497,0.079,0.991,0.201,1.474,0.338
	c0.233,0.066,0.443,0.213,0.963,0.479c-0.724,1.905-1.366,3.848-2.188,5.704c-2.677,6.05-6.572,11.235-11.106,15.906
	c-4.801,4.952-9.784,9.719-14.608,14.648c-2.379,2.432-4.669,4.97-6.845,7.596c-9.79,11.825-12.435,25.291-8.587,40.205
	c0.296,1.149,0.644,2.284,0.989,3.501c5.005-0.508,8.603-3.124,11.54-6.879c3.304-4.228,5.404-9.131,7.221-14.154
	c1.694-4.687,3.254-9.425,4.818-14.162c3.177-9.604,7.686-18.548,12.57-27.323c3.417-6.139,6.849-12.272,10.111-18.5
	c2.877-5.491,5-11.289,5.976-17.493c1.249-7.926,0.173-15.448-3.464-22.583c-3.032-5.947-7.257-10.974-11.479-16.015
	c-2.74-3.271-5.479-6.548-8.057-9.951c-1.586-2.095-2.872-4.432-4.479-6.954c1.024-0.35,1.76-0.639,2.517-0.854
	c6.576-1.86,12.954-4.247,19.054-7.398c0.914-0.472,1.7-0.857,1.828-2.167c0.88-9.159,3.634-17.858,6.22-26.607
	c1.825-6.18,3.517-12.411,4.939-18.699c0.773-3.419,0.859-7.003,1.244-10.515c0.072-0.671,0.096-1.351,0.142-2.015
	c0.342-0.118,0.575-0.268,0.807-0.269c7.471-0.019,14.949-0.339,22.386,0.757c5.398,0.795,10.828,1.374,16.204,2.288
	c4.815,0.819,9.469,2.313,13.851,4.593c8.727,4.541,13.401,12.001,14.783,21.782c1.392,9.855,0.595,19.638-1.199,29.354
	c-2.278,12.337-6.042,24.196-11.184,35.594c-0.207,0.463-0.357,0.951-0.612,1.633c1.085,0.434,2.071,0.867,3.082,1.221
	c6.586,2.32,13.175,4.628,19.771,6.92c1.235,0.428,2.115,0.969,2.602,2.438c7.007,21.237,13.819,42.529,19.048,64.319
	c4.067,16.931,7.119,34.047,8.771,51.404c1.542,16.182,1.735,32.398,0.516,48.614c-0.65,8.617-2.444,17.043-4.117,25.496
	c-1.567,7.934-3.285,15.869-4.222,23.894c-1.52,13.037,0.192,25.809,4.517,38.184c3.773,10.788,9.39,20.594,15.258,30.272
	c5.105,8.417,10.237,16.827,15.166,25.356c7.996,13.845,13.029,28.904,16.775,44.457c3.061,12.691,4.854,25.597,4.925,38.666
	c0.03,5.922-0.54,11.912-1.488,17.758c-1.374,8.482-5.905,15.306-12.049,21.021c-6.899,6.419-14.981,10.804-23.708,13.869
	c-5.145,1.807-10.479,3.04-15.73,4.531c-0.16,0.048-0.326,0.12-0.486,0.123c-7.623,0.06-15.279,0.757-22.732-1.718
	c-8.857-2.941-15.588-8.624-20.614-16.558c-4.887-7.707-7.652-16.259-9.379-25.21c-2.65-13.755-2.568-27.616-1.427-41.503
	c0.449-5.421,1.296-10.774,3.455-15.816c3.19-7.463,7.875-13.543,15.513-16.457c8.238-3.146,16.161-2.571,23.342,3.172
	c7.949,6.357,13.51,14.578,17.611,23.908c2.967,6.754,4.865,13.786,4.775,21.259c-0.018,1.637-0.144,3.29-0.407,4.901
	c-0.748,4.591-3.088,8.195-6.885,10.685c-6.657,4.364-13.851,5.162-21.252,2.566c-6.84-2.393-10.471-8.27-10.228-15.821
	c0.094-2.863,0.484-5.67,1.7-8.298c1.841-3.982,4.354-5.482,8.625-5.276c2.481,0.12,4.111,1.331,4.94,3.691
	c0.538,1.535,0.958,3.12,1.512,4.651C363.574,507.591,364.409,508.7,365.929,509.432z M267.906,226.51
	c-1.935,6.274-4.615,12.021-7.94,17.432c-3.178,5.178-6.5,10.262-9.745,15.396c-0.491,0.777-0.905,1.604-1.394,2.474
	c0.385,0.194,0.582,0.34,0.801,0.396c7.868,2.078,15.437-1.124,19.919-8.492c3.73-6.136,4.664-12.845,3.557-19.898
	c-0.399-2.547-1.069-5.034-2.458-7.308C269.779,226.51,268.955,226.51,267.906,226.51z M288.988,69.241
	c-1.218,3.453-2.508,6.556-3.377,9.777c-0.55,2.039-0.731,4.266-0.626,6.385c0.249,4.89,2.506,7.375,7.119,8.305
	c0.411,0.082,0.833,0.106,1.248,0.172c4.349,0.702,8.248,2.226,11.068,5.981c1.461,1.947,3.589,2.269,5.707,1.49
	c1.468-0.538,2.922-1.371,4.108-2.404c2.657-2.326,4.084-5.435,4.55-8.977c0.184-1.398,0.576-2.838-0.187-4.438
	c-1.072,1.486-1.955,2.85-2.981,4.089c-1.246,1.509-2.495,3.055-3.953,4.332c-3.812,3.339-9.057,3.41-12.961,0.183
	c-1.294-1.066-2.471-2.367-3.432-3.756c-3.135-4.54-4.607-9.725-5.194-15.2c-0.068-0.635,0.081-1.292,0.113-1.718
	c3.643,0.248,7.06,0.615,10.483,0.656c1.456,0.018,2.991-0.471,4.36-1.053c1.758-0.748,2.157-1.833,1.882-4.071
	C301.048,69.05,295.196,71.539,288.988,69.241z M233.147,160.031c-7.714-0.061-12.699,8.16-9.016,14.868
	c1.065,1.946,1.365,2.1,3.412,1.573c2.475-0.636,4.763-1.691,6.733-3.384c2.056-1.763,3.604-3.899,3.97-6.692
	C238.95,161.005,238.037,160.305,233.147,160.031z"/>
<path fill-rule="evenodd" clip-rule="evenodd" d="M232.43,86.882c-7.412-24.715,7.191-47.192,32.476-48.241
	c-0.291,1.46-0.531,2.869-0.854,4.257c-2.009,8.619-4.077,17.225-6.031,25.857c-0.604,2.678-0.946,5.421-1.353,8.143
	c-0.311,2.067-0.272,2.08-2.228,2.39c-3.781,0.6-7.207,2.22-10.613,3.898c-3.259,1.608-6.578,3.047-10.194,3.586
	C233.229,86.833,232.817,86.847,232.43,86.882z"/>
<path fill-rule="evenodd" clip-rule="evenodd" d="M198.5,172.954c-2.273-2.05-3.835-4.4-5.201-6.875
	c-1.779-3.224-3.345-6.575-5.17-9.769c-1.355-2.371-2.845-4.691-4.51-6.84c-2.351-3.032-5.492-5.015-9.213-6.176
	c0.153-0.579,0.139-1.072,0.371-1.341c2.625-3.034,7.013-3.897,10.286-1.591c2.245,1.581,4.263,3.638,6.013,5.799
	c2.304,2.843,4.228,6.008,6.35,9.01c0.81,1.146,1.718,2.222,2.806,3.617c0.862-2.607,0.584-4.743-0.273-6.697
	c-0.816-1.863-1.838-3.708-3.113-5.266c-2.754-3.373-5.825-6.444-9.349-9.006c-1.984-1.446-3.962-2.915-5.836-4.508
	c-1.699-1.445-3.13-3.148-3.327-5.773c2.892-1.063,5.753-0.527,8.578,0.293c3.463,1.001,6.407,2.987,9.082,5.399
	c5.838,5.268,9.913,11.89,13.601,18.807c0.402,0.752,0.396,1.392,0.015,2.174c-1.946,4.011-3.786,8.078-5.769,12.07
	C202.58,168.825,200.971,171.136,198.5,172.954z"/>
<path fill-rule="evenodd" clip-rule="evenodd" fill="#FFFFFF" d="M267.906,226.51c1.048,0,1.873,0,2.74,0
	c1.39,2.274,2.059,4.761,2.458,7.308c1.106,7.053,0.173,13.762-3.557,19.898c-4.482,7.369-12.051,10.57-19.919,8.492
	c-0.219-0.056-0.416-0.202-0.801-0.396c0.488-0.869,0.903-1.696,1.394-2.474c3.246-5.134,6.567-10.218,9.745-15.396
	C263.291,238.531,265.971,232.785,267.906,226.51z"/>
<path fill-rule="evenodd" clip-rule="evenodd" fill="#FFFFFF" d="M288.988,69.241c6.208,2.298,12.06-0.191,17.928-0.247
	c0.275,2.237-0.124,3.323-1.882,4.071c-1.369,0.583-2.904,1.071-4.36,1.053c-3.423-0.041-6.84-0.408-10.483-0.656
	c-0.032,0.426-0.182,1.083-0.113,1.718c0.587,5.475,2.059,10.66,5.194,15.2c0.96,1.389,2.138,2.689,3.432,3.756
	c3.904,3.227,9.149,3.157,12.961-0.183c1.458-1.277,2.707-2.823,3.953-4.332c1.026-1.239,1.909-2.603,2.981-4.089
	c0.763,1.601,0.37,3.041,0.187,4.438c-0.466,3.542-1.893,6.651-4.55,8.977c-1.187,1.033-2.641,1.866-4.108,2.404
	c-2.118,0.779-4.246,0.458-5.707-1.49c-2.82-3.755-6.72-5.28-11.068-5.981c-0.416-0.066-0.837-0.09-1.248-0.172
	c-4.613-0.931-6.87-3.415-7.119-8.305c-0.105-2.119,0.076-4.347,0.626-6.385C286.48,75.797,287.771,72.694,288.988,69.241z"/>
<path fill-rule="evenodd" clip-rule="evenodd" fill="#FFFFFF" d="M233.147,160.031c4.89,0.274,5.803,0.974,5.1,6.365
	c-0.367,2.793-1.915,4.929-3.97,6.692c-1.971,1.692-4.259,2.748-6.733,3.384c-2.047,0.527-2.347,0.373-3.412-1.573
	C220.448,168.19,225.433,159.97,233.147,160.031z"/>
</svg>
